<svg class="gridItem__media" version="1.1" id="Layer_1" xmlns="http://www.w3.org/2000/svg" x="0px" y="0px" width="1600" height="1200" viewBox="0 0 1600 1200" style="baseline-shift: 0px; clip-rule: nonzero; color: rgb(61, 61, 61); color-interpolation: srgb; color-interpolation-filters: linearrgb; color-rendering: auto; cursor: auto; direction: ltr; display: block; fill: none; fill-opacity: 1; fill-rule: nonzero; font: 400 16px / 18.4px Lato, sans-serif; image-rendering: auto; letter-spacing: normal; marker: none; overflow: hidden; paint-order: normal; pointer-events: auto; shape-rendering: auto; stroke: none; stroke-dasharray: none; stroke-dashoffset: 0px; stroke-linecap: butt; stroke-linejoin: miter; stroke-miterlimit: 4; stroke-opacity: 1; stroke-width: 1px; text-anchor: start; text-decoration: none solid rgb(61, 61, 61); text-rendering: auto; visibility: visible; word-spacing: 0px; writing-mode: horizontal-tb;" fill="none" xmlns:xlink="http://www.w3.org/1999/xlink">
<path d="M1303.47 1038.3L1412.09 748.67C1416.49 736.935 1416.74 724.047 1412.8 712.15L1255.89 238.8C1252.43 228.355 1245.9 219.193 1237.17 212.505C1228.43 205.817 1217.88 201.913 1206.89 201.3L467.301 160.57C458.539 160.084 449.789 161.708 441.784 165.305C433.78 168.902 426.756 174.366 421.301 181.24L196.301 464.87C190.504 472.176 186.666 480.839 185.149 490.041C183.631 499.243 184.486 508.68 187.631 517.46L374.321 1038.31H1303.47V1038.3Z" fill="#F4F4F4" style="baseline-shift: 0px; fill: rgb(244, 244, 244); paint-order: normal; text-decoration: none solid rgb(61, 61, 61);"></path>
<path d="M730.531 334.17C730.531 334.17 668.631 399.64 623.201 442.05C591.201 471.96 493.391 561.85 493.391 561.85C493.391 561.85 570.621 610.05 601.461 627.99C625.461 641.99 713.191 694.78 713.191 694.78C713.191 694.78 851.691 628.39 900.371 602.42C927.251 588.08 1011.24 534.84 1011.24 534.84C1011.24 534.84 885.701 455.43 848.861 429.26C818.091 407.41 730.531 334.17 730.531 334.17Z" fill="#D9DCDE" style="baseline-shift: 0px; fill: rgb(217, 220, 222); paint-order: normal; text-decoration: none solid rgb(61, 61, 61);"></path>
<path d="M493.391 561.85C493.391 561.85 591.171 472 623.201 442.05C668.631 399.64 730.531 334.17 730.531 334.17V415.79L703.911 418.38L747.191 470.3L665.471 468.57L682.471 504.04L546.001 602.42L493.391 561.85Z" fill="white" style="baseline-shift: 0px; fill: rgb(255, 255, 255); paint-order: normal; text-decoration: none solid rgb(61, 61, 61);"></path>
<path d="M764.6 696.55L718.18 694.66L719.46 688.1L727.54 690.5L720.13 684.68L720.83 681.14L730.66 686.46L721.53 677.56L725.32 658.25L734.17 663.58L725.9 655.26L731.17 628.43L739.24 633.4L731.92 624.58L734.04 613.77H739.24L734.67 610.59V610.58L736.2 602.78L743.27 605.97L736.73 600.07L741.24 577.1L750.04 621.98L743.27 625.94L751.08 627.26L751.85 631.18L747.44 630.8L752.47 634.38L755.06 647.57L746.92 652.21L756.27 653.76L758.72 666.24L747.44 671.77L759.32 669.3L759.76 671.52L751.01 678.4L760.2 673.78L761 677.83L749.13 684.38L762.65 686.24L764.6 696.55Z" fill="black" style="baseline-shift: 0px; fill: rgb(0, 0, 0); paint-order: normal; text-decoration: none solid rgb(61, 61, 61);"></path>
<path d="M865.08 647.97L818.66 646.08L819.94 639.52L828.02 641.92L820.61 636.11L821.31 632.56L831.14 637.88L822.01 628.98L825.8 609.67L834.65 615L826.38 606.68L831.65 579.86L839.72 584.83L832.4 576L834.52 565.19H839.72L835.15 562.01L836.68 554.2L843.75 557.39L837.21 551.49L841.72 528.52L850.52 573.4L843.75 577.36L851.56 578.68L852.33 582.6L847.92 582.23L852.95 585.8L855.54 598.99L847.4 603.63L856.75 605.18L859.2 617.66L847.92 623.19L859.8 620.73L860.24 622.94L851.49 629.82L860.68 625.2L861.48 629.25L849.61 635.81L863.13 637.66L865.08 647.97Z" fill="black" style="baseline-shift: 0px; fill: rgb(0, 0, 0); paint-order: normal; text-decoration: none solid rgb(61, 61, 61);"></path>
<path d="M1120 475.18C1120 475.18 988.401 555.28 941.451 580.9C885.191 611.61 706.621 698 706.621 698L966.001 873.91L1405.93 765.1L1412.09 748.67C1416.49 736.935 1416.74 724.047 1412.8 712.15L1384.1 625.59C1384.1 625.59 1261.26 564.59 1229.37 547.53C1190.81 526.75 1154.21 502.535 1120 475.18Z" fill="#D9DCDE" style="baseline-shift: 0px; fill: rgb(217, 220, 222); paint-order: normal; text-decoration: none solid rgb(61, 61, 61);"></path>
<path opacity="0.2" d="M1120 475.18C1120 475.18 988.401 555.28 941.451 580.9C885.191 611.61 706.621 698 706.621 698L966.001 873.91L1405.93 765.1L1412.09 748.67C1416.49 736.935 1416.74 724.047 1412.8 712.15L1384.1 625.59C1384.1 625.59 1261.26 564.59 1229.37 547.53C1190.81 526.75 1154.21 502.535 1120 475.18Z" fill="black" style="baseline-shift: 0px; fill: rgb(0, 0, 0); opacity: 0.2; paint-order: normal; text-decoration: none solid rgb(61, 61, 61);"></path>
<path d="M706.621 698C706.621 698 885.191 611.61 941.471 580.9C988.421 555.28 1120 475.18 1120 475.18L1083.7 588.24L1048.44 594.78L1038 669.23L893.411 663.53L935.171 702.53L724.311 722.69L706.621 698Z" fill="white" style="baseline-shift: 0px; fill: rgb(255, 255, 255); paint-order: normal; text-decoration: none solid rgb(61, 61, 61);"></path>
<path d="M219.309 605.85C219.309 605.85 260.359 578.14 299.039 552.92C329.139 533.258 358.229 512.091 386.199 489.5C386.199 489.5 459.359 539.69 483.699 555.5C592.599 626.44 917.299 814 907.929 808.48L253.719 701.64L219.309 605.85Z" fill="#858990" style="baseline-shift: 0px; fill: rgb(133, 137, 144); paint-order: normal; text-decoration: none solid rgb(61, 61, 61);"></path>
<path d="M219.309 605.85C219.309 605.85 260.359 578.14 299.039 552.92C329.139 533.258 358.229 512.091 386.199 489.5L402.869 559.34L343.799 580.7L389.049 605.85L248.689 687.64L219.309 605.85Z" fill="white" style="baseline-shift: 0px; fill: rgb(255, 255, 255); paint-order: normal; text-decoration: none solid rgb(61, 61, 61);"></path>
<path d="M245.621 679.24C245.621 679.24 322.281 677.11 523.941 727.13C620.081 750.98 692.781 769.45 773.741 783.63C862.591 799.19 959.461 809.63 1062.74 817.9L921.741 897.61L309.741 858.39L245.621 679.24Z" class="change-color-in-svg" fill="#4D61FC" style="fill: rgb(135, 206, 250); baseline-shift: 0px; paint-order: normal; text-decoration: none solid rgb(61, 61, 61);"></path>
<path opacity="0.2" d="M245.621 679.24C245.621 679.24 322.281 677.11 523.941 727.13C620.081 750.98 688.681 768.74 769.631 782.92C858.491 798.48 959.461 809.65 1062.76 817.92L921.761 897.63L309.761 858.41L245.621 679.24Z" fill="white" style="baseline-shift: 0px; fill: rgb(255, 255, 255); opacity: 0.2; paint-order: normal; text-decoration: none solid rgb(61, 61, 61);"></path>
<path d="M386.201 839.78L328.531 837.44L330.131 829.29L340.161 832.27L330.961 825.05L331.821 820.64L344.041 827.26L332.701 816.19L337.401 792.21L348.401 798.83L338.131 788.5L344.671 755.17L354.701 761.35L345.611 750.38L348.241 736.95H354.701L349.021 733L350.921 723.3L359.711 727.26L351.581 719.93L357.181 691.4L368.111 747.15L359.711 752.07L369.401 753.72L370.361 758.58L364.881 758.12L371.131 762.55L374.351 778.94L364.231 784.71L375.861 786.63L378.901 802.13L364.881 809L379.651 805.94L380.191 808.69L369.321 817.24L380.741 811.5L381.721 816.53L366.981 824.67L383.771 826.98L386.201 839.78Z" fill="black" style="baseline-shift: 0px; fill: rgb(0, 0, 0); paint-order: normal; text-decoration: none solid rgb(61, 61, 61);"></path>
<path d="M574.879 853.34L517.199 850.99L518.799 842.85L528.829 845.82L519.629 838.6L520.499 834.19L532.709 840.81L521.369 829.74L526.069 805.76L537.069 812.38L526.799 802.05L533.339 768.72L543.369 774.9L534.279 763.93L536.909 750.5H543.369L537.689 746.55L539.589 736.85L548.379 740.81L540.249 733.48L545.849 704.95L556.789 760.7L548.379 765.62L558.079 767.27L559.029 772.13L553.549 771.66L559.809 776.1L563.019 792.49L552.909 798.26L564.529 800.18L567.569 815.68L553.549 822.55L568.319 819.49L568.859 822.24L557.989 830.79L569.409 825.05L570.399 830.08L555.649 838.23L572.449 840.53L574.879 853.34Z" fill="black" style="baseline-shift: 0px; fill: rgb(0, 0, 0); paint-order: normal; text-decoration: none solid rgb(61, 61, 61);"></path>
<path d="M497.959 842.97L404.469 839.16L407.059 825.96L423.319 830.78L408.409 819.08L409.809 811.94L429.609 822.66L411.219 804.72L418.849 765.85L436.679 776.57L420.029 759.83L430.629 705.8L446.889 715.81L432.149 698.04L436.419 676.26H446.889L437.679 669.86V669.85L440.769 654.13L455.009 660.55L441.839 648.67L450.909 602.42L468.639 692.79L455.009 700.77L470.729 703.44L472.269 711.33L463.389 710.57L473.539 717.76L478.749 744.34L462.349 753.68L481.189 756.8L486.119 781.93L463.389 793.07L487.329 788.1L488.209 792.56L470.599 806.43L489.099 797.11L490.699 805.27L466.799 818.47L494.019 822.21L497.959 842.97Z" fill="black" style="baseline-shift: 0px; fill: rgb(0, 0, 0); paint-order: normal; text-decoration: none solid rgb(61, 61, 61);"></path>
<path d="M301.289 834.78C301.289 834.78 321.439 815.14 354.079 815.18C421.219 815.26 603.959 869.83 700.469 866.77C827.809 862.77 997.379 862.29 1185.8 767.42C1306.7 706.53 1414.7 739.2 1414.7 739.2C1414.7 739.2 1413.77 743.49 1413.35 744.9C1411.8 750.05 1405.93 765.1 1405.93 765.1L1303.47 1038.31H374.319L301.289 834.78Z" class="change-color-in-svg" fill="#4D61FC" style="fill: rgb(135, 206, 250); baseline-shift: 0px; paint-order: normal; text-decoration: none solid rgb(61, 61, 61);"></path>
<path opacity="0.7" d="M301.289 834.78C301.289 834.78 321.439 815.14 354.079 815.18C421.219 815.26 603.959 869.83 700.469 866.77C827.809 862.77 997.379 862.29 1185.8 767.42C1300.5 709.66 1404.34 736.31 1414.7 739.2C1414.7 739.2 1413.87 743.11 1413.49 744.38C1411.92 749.67 1405.93 765.1 1405.93 765.1L1303.47 1038.31H374.319L301.289 834.78Z" fill="white" style="baseline-shift: 0px; fill: rgb(255, 255, 255); opacity: 0.7; paint-order: normal; text-decoration: none solid rgb(61, 61, 61);"></path>
<path d="M638.071 997.52C638.071 997.52 582.231 843.52 603.151 835.64C625.081 827.37 689.261 997.52 689.261 997.52H638.071Z" class="change-color-in-svg" fill="#4D61FC" style="fill: rgb(135, 206, 250); baseline-shift: 0px; paint-order: normal; text-decoration: none solid rgb(61, 61, 61);"></path>
<path opacity="0.5" d="M638.071 997.52C638.071 997.52 582.231 843.52 603.151 835.64C625.081 827.37 689.261 997.52 689.261 997.52H638.071Z" fill="white" style="baseline-shift: 0px; fill: rgb(255, 255, 255); opacity: 0.5; paint-order: normal; text-decoration: none solid rgb(61, 61, 61);"></path>
<path d="M690.542 997.52C690.542 997.52 727.742 816.63 706.822 808.74C684.892 800.47 639.352 997.52 639.352 997.52H690.542Z" fill="#21252B" style="baseline-shift: 0px; fill: rgb(33, 37, 43); paint-order: normal; text-decoration: none solid rgb(61, 61, 61);"></path>
<path d="M938.592 1038.31L865.122 903C862.803 898.725 859.314 895.2 855.063 892.837C850.813 890.474 845.977 889.372 841.122 889.66L735.122 895.79C730.459 896.058 725.959 897.598 722.109 900.242C718.259 902.886 715.206 906.534 713.282 910.79V910.79C711.452 914.845 708.595 918.352 704.995 920.965C701.394 923.579 697.174 925.207 692.752 925.69L681.162 926.96C676.456 927.477 671.986 929.291 668.25 932.199C664.514 935.107 661.658 938.995 660.002 943.43L624.672 1038.29L938.592 1038.31Z" fill="#AFB3B8" style="baseline-shift: 0px; fill: rgb(175, 179, 184); paint-order: normal; text-decoration: none solid rgb(61, 61, 61);"></path>
<path d="M830.691 1039.52L836.101 1009.78C837.241 1003.52 840.561 997.869 845.473 993.827C850.385 989.784 856.571 987.614 862.931 987.7L991.781 988.45C1000.7 988.57 1010.87 994.14 1015.78 1001.59L1040.78 1039.52H830.691Z" fill="#3F4249" style="baseline-shift: 0px; fill: rgb(63, 66, 73); paint-order: normal; text-decoration: none solid rgb(61, 61, 61);"></path>
<path d="M537.89 369.88C571.342 369.88 598.46 342.762 598.46 309.31C598.46 275.858 571.342 248.74 537.89 248.74C504.438 248.74 477.32 275.858 477.32 309.31C477.32 342.762 504.438 369.88 537.89 369.88Z" class="change-color-in-svg" fill="#4D61FC" style="fill: rgb(135, 206, 250); baseline-shift: 0px; paint-order: normal; text-decoration: none solid rgb(61, 61, 61);"></path>
<path opacity="0.5" d="M537.89 369.88C571.342 369.88 598.46 342.762 598.46 309.31C598.46 275.858 571.342 248.74 537.89 248.74C504.438 248.74 477.32 275.858 477.32 309.31C477.32 342.762 504.438 369.88 537.89 369.88Z" fill="white" style="baseline-shift: 0px; fill: rgb(255, 255, 255); opacity: 0.5; paint-order: normal; text-decoration: none solid rgb(61, 61, 61);"></path>
<path d="M954.84 1039.37C960.227 1034.22 965.836 1029.28 971.67 1024.54C1019.55 985.743 1078.9 963.852 1140.51 962.271C1202.11 960.691 1262.51 979.509 1312.32 1015.8L1303.47 1039.4L954.84 1039.37Z" fill="#AFB3B8" style="baseline-shift: 0px; fill: rgb(175, 179, 184); paint-order: normal; text-decoration: none solid rgb(61, 61, 61);"></path>
<path d="M724.611 1038.29C667.891 920.46 528.341 866 405.881 916.43C383.508 925.625 362.595 938.032 343.801 953.26L374.321 1038.26L724.611 1038.29Z" fill="#3F4249" style="baseline-shift: 0px; fill: rgb(63, 66, 73); paint-order: normal; text-decoration: none solid rgb(61, 61, 61);"></path>
<path d="M331.208 898.49C345.962 892.684 361.437 888.916 377.208 887.29C378.847 887.126 380.487 887.587 381.8 888.581C383.113 889.575 384.002 891.028 384.288 892.65L400.588 985.21L416.288 868.79C416.508 867.158 417.335 865.669 418.605 864.621C419.876 863.574 421.495 863.045 423.138 863.14C438.95 864.112 454.568 867.137 469.598 872.14C471.174 872.673 472.487 873.787 473.267 875.256C474.048 876.724 474.238 878.436 473.798 880.04L467.798 901.88L450.798 963.62L500.688 921.32L519.998 904.82C521.168 903.821 522.653 903.267 524.191 903.254C525.729 903.241 527.222 903.771 528.408 904.75C545.495 918.877 559.89 935.975 570.898 955.22C571.691 956.601 571.949 958.225 571.624 959.784C571.3 961.343 570.416 962.729 569.138 963.68L549.998 978.06L479.558 1024.5L559.908 999.56L580.268 993.05C581.101 992.782 581.978 992.685 582.849 992.764C583.72 992.843 584.565 993.097 585.335 993.51C586.106 993.924 586.785 994.489 587.331 995.171C587.878 995.853 588.282 996.638 588.518 997.48C591.62 1008.77 593.629 1020.34 594.518 1032.02C594.586 1032.92 594.467 1033.82 594.17 1034.66C593.873 1035.51 593.403 1036.29 592.791 1036.95C592.178 1037.6 591.436 1038.13 590.611 1038.48C589.787 1038.84 588.897 1039.02 587.998 1039.02L374.428 1038.47L327.488 906.73C326.918 905.142 326.987 903.395 327.681 901.857C328.375 900.319 329.64 899.112 331.208 898.49V898.49Z" class="change-color-in-svg" fill="#4D61FC" style="fill: rgb(135, 206, 250); baseline-shift: 0px; paint-order: normal; text-decoration: none solid rgb(61, 61, 61);"></path>
<path opacity="0.3" d="M331.208 898.49C345.962 892.684 361.437 888.916 377.208 887.29C378.847 887.126 380.487 887.587 381.8 888.581C383.113 889.575 384.002 891.028 384.288 892.65L400.588 985.21L416.288 868.79C416.508 867.158 417.335 865.669 418.605 864.621C419.876 863.574 421.495 863.045 423.138 863.14C438.95 864.112 454.568 867.137 469.598 872.14C471.174 872.673 472.487 873.787 473.267 875.256C474.048 876.724 474.238 878.436 473.798 880.04L467.798 901.88L450.798 963.62L500.688 921.32L519.998 904.82C521.168 903.821 522.653 903.267 524.191 903.254C525.729 903.241 527.222 903.771 528.408 904.75C545.495 918.877 559.89 935.975 570.898 955.22C571.691 956.601 571.949 958.225 571.624 959.784C571.3 961.343 570.416 962.729 569.138 963.68L549.998 978.06L479.558 1024.5L559.908 999.56L580.318 993.09C581.151 992.822 582.03 992.724 582.901 992.803C583.772 992.882 584.619 993.136 585.39 993.55C586.161 993.963 586.84 994.528 587.388 995.21C587.936 995.892 588.341 996.678 588.578 997.52C591.653 1008.8 593.636 1020.36 594.498 1032.02C594.566 1032.92 594.447 1033.82 594.15 1034.66C593.853 1035.51 593.383 1036.29 592.771 1036.95C592.158 1037.6 591.416 1038.13 590.591 1038.48C589.767 1038.84 588.877 1039.02 587.978 1039.02L374.408 1038.47L327.488 906.73C326.918 905.142 326.987 903.395 327.681 901.857C328.375 900.319 329.64 899.112 331.208 898.49V898.49Z" fill="white" style="baseline-shift: 0px; fill: rgb(255, 255, 255); opacity: 0.3; paint-order: normal; text-decoration: none solid rgb(61, 61, 61);"></path>
<path d="M1244.14 976.78L1187.07 894.63C1184.74 891.281 1183.81 887.155 1184.49 883.133C1185.16 879.11 1187.38 875.51 1190.67 873.1V873.1C1192.44 871.803 1194.46 870.892 1196.61 870.429C1198.75 869.965 1200.97 869.959 1203.12 870.41C1205.27 870.86 1207.3 871.759 1209.08 873.046C1210.85 874.333 1212.34 875.98 1213.44 877.88L1258.06 955L1244.14 976.78Z" fill="white" style="baseline-shift: 0px; fill: rgb(255, 255, 255); paint-order: normal; text-decoration: none solid rgb(61, 61, 61);"></path>
<path d="M1304.48 910.48V824.54C1304.48 823.161 1304.75 821.795 1305.28 820.522C1305.81 819.248 1306.59 818.092 1307.56 817.119C1308.54 816.146 1309.7 815.376 1310.98 814.853C1312.25 814.329 1313.62 814.063 1315 814.07V814.07C1316.44 814.069 1317.86 814.364 1319.17 814.935C1320.49 815.506 1321.67 816.342 1322.65 817.39C1323.63 818.439 1324.39 819.678 1324.87 821.03C1325.35 822.382 1325.55 823.818 1325.45 825.25L1319.74 909.18L1304.48 910.48Z" fill="white" style="baseline-shift: 0px; fill: rgb(255, 255, 255); paint-order: normal; text-decoration: none solid rgb(61, 61, 61);"></path>
<path d="M1308.09 967.65L1321.51 832.21C1321.74 829.882 1322.43 827.623 1323.53 825.561C1324.64 823.5 1326.14 821.676 1327.95 820.196C1329.76 818.715 1331.84 817.606 1334.08 816.932C1336.32 816.259 1338.67 816.034 1341 816.27V816.27C1343.43 816.513 1345.79 817.254 1347.92 818.447C1350.05 819.641 1351.91 821.26 1353.39 823.205C1354.87 825.15 1355.93 827.379 1356.51 829.753C1357.08 832.126 1357.17 834.593 1356.75 837L1338.28 945.54L1319.59 995.35L1308.09 967.65Z" class="change-color-in-svg" fill="#4D61FC" style="fill: rgb(135, 206, 250); baseline-shift: 0px; paint-order: normal; text-decoration: none solid rgb(61, 61, 61);"></path>
<path opacity="0.5" d="M1308.09 967.65L1321.51 832.21C1321.74 829.882 1322.43 827.623 1323.53 825.561C1324.64 823.5 1326.14 821.676 1327.95 820.196C1329.76 818.715 1331.84 817.606 1334.08 816.932C1336.32 816.259 1338.67 816.034 1341 816.27V816.27C1343.43 816.513 1345.79 817.254 1347.92 818.447C1350.05 819.641 1351.91 821.26 1353.39 823.205C1354.87 825.15 1355.93 827.379 1356.51 829.753C1357.08 832.126 1357.17 834.593 1356.75 837L1338.28 945.54L1319.59 995.35L1308.09 967.65Z" fill="white" style="baseline-shift: 0px; fill: rgb(255, 255, 255); opacity: 0.5; paint-order: normal; text-decoration: none solid rgb(61, 61, 61);"></path>
<path d="M1284.73 1008.54L1263 806.79C1262.69 803.878 1262.96 800.934 1263.8 798.129C1264.64 795.324 1266.04 792.715 1267.9 790.456C1269.76 788.196 1272.06 786.331 1274.65 784.97C1277.24 783.609 1280.08 782.78 1283 782.53V782.53C1285.9 782.29 1288.81 782.626 1291.58 783.52C1294.35 784.414 1296.91 785.848 1299.12 787.739C1301.33 789.629 1303.14 791.939 1304.45 794.535C1305.77 797.13 1306.55 799.96 1306.76 802.86L1323.24 985.51L1284.73 1008.54Z" class="change-color-in-svg" fill="#4D61FC" style="fill: rgb(135, 206, 250); baseline-shift: 0px; paint-order: normal; text-decoration: none solid rgb(61, 61, 61);"></path>
<path opacity="0.3" d="M1284.73 1008.54L1263 806.79C1262.69 803.878 1262.96 800.934 1263.8 798.129C1264.64 795.324 1266.04 792.715 1267.9 790.456C1269.76 788.196 1272.06 786.331 1274.65 784.97C1277.24 783.609 1280.08 782.78 1283 782.53V782.53C1285.9 782.29 1288.81 782.626 1291.58 783.52C1294.35 784.414 1296.91 785.848 1299.12 787.739C1301.33 789.629 1303.14 791.939 1304.45 794.535C1305.77 797.13 1306.55 799.96 1306.76 802.86L1323.24 985.51L1284.73 1008.54Z" fill="white" style="baseline-shift: 0px; fill: rgb(255, 255, 255); opacity: 0.3; paint-order: normal; text-decoration: none solid rgb(61, 61, 61);"></path>
<path d="M1296.73 937.55C1296.48 937.551 1296.23 937.456 1296.05 937.286C1295.86 937.115 1295.75 936.881 1295.73 936.63L1282.04 782.63L1283.04 782.52L1284.04 782.46L1297.74 936.46C1297.75 936.593 1297.74 936.727 1297.7 936.855C1297.66 936.983 1297.6 937.102 1297.51 937.204C1297.43 937.307 1297.32 937.391 1297.2 937.452C1297.08 937.513 1296.95 937.55 1296.82 937.56L1296.73 937.55Z" fill="black" style="baseline-shift: 0px; fill: rgb(0, 0, 0); paint-order: normal; text-decoration: none solid rgb(61, 61, 61);"></path>
<path d="M1323.27 985.51L1262.43 851.51C1260.11 846.409 1256.15 842.229 1251.18 839.635C1246.21 837.041 1240.51 836.18 1235 837.19C1231.3 837.87 1227.79 839.372 1224.75 841.586C1221.7 843.8 1219.19 846.669 1217.41 849.982C1215.62 853.295 1214.59 856.967 1214.41 860.727C1214.23 864.488 1214.9 868.241 1216.36 871.71L1251.49 955.15L1202.24 914.33C1199.73 912.253 1196.81 910.739 1193.67 909.891C1190.53 909.043 1187.24 908.88 1184.03 909.414C1180.82 909.948 1177.76 911.166 1175.06 912.986C1172.36 914.805 1170.09 917.184 1168.39 919.96V919.96C1165.36 924.915 1164.34 930.842 1165.55 936.523C1166.76 942.204 1170.1 947.206 1174.88 950.5L1303.25 1038.93L1323.27 985.51Z" class="change-color-in-svg" fill="#4D61FC" style="fill: rgb(135, 206, 250); baseline-shift: 0px; paint-order: normal; text-decoration: none solid rgb(61, 61, 61);"></path>
<path opacity="0.15" d="M1323.27 985.51L1262.43 851.51C1260.11 846.409 1256.15 842.229 1251.18 839.635C1246.21 837.041 1240.51 836.18 1235 837.19C1231.3 837.87 1227.79 839.372 1224.75 841.586C1221.7 843.8 1219.19 846.669 1217.41 849.982C1215.62 853.295 1214.59 856.967 1214.41 860.727C1214.23 864.488 1214.9 868.241 1216.36 871.71L1251.49 955.15L1202.24 914.33C1199.73 912.253 1196.81 910.739 1193.67 909.891C1190.53 909.043 1187.24 908.88 1184.03 909.414C1180.82 909.948 1177.76 911.166 1175.06 912.986C1172.36 914.805 1170.09 917.184 1168.39 919.96V919.96C1165.36 924.915 1164.34 930.842 1165.55 936.523C1166.76 942.204 1170.1 947.206 1174.88 950.5L1303.25 1038.93L1323.27 985.51Z" fill="white" style="baseline-shift: 0px; fill: rgb(255, 255, 255); opacity: 0.15; paint-order: normal; text-decoration: none solid rgb(61, 61, 61);"></path>
<path d="M1267.56 989.41C1267.35 989.411 1267.14 989.344 1266.97 989.22L1169 918.91L1169.55 918.14C1169.71 917.92 1170.22 917.29 1170.22 917.29L1268.12 987.57C1268.23 987.647 1268.32 987.745 1268.4 987.858C1268.47 987.972 1268.51 988.099 1268.54 988.231C1268.56 988.364 1268.55 988.499 1268.52 988.63C1268.49 988.76 1268.43 988.883 1268.35 988.99C1268.26 989.117 1268.14 989.22 1268 989.293C1267.87 989.366 1267.72 989.406 1267.56 989.41V989.41Z" fill="black" style="baseline-shift: 0px; fill: rgb(0, 0, 0); paint-order: normal; text-decoration: none solid rgb(61, 61, 61);"></path>
<path d="M1287.31 975C1287.11 975.003 1286.91 974.946 1286.74 974.835C1286.58 974.724 1286.44 974.566 1286.37 974.38L1229.56 838.84L1230.43 838.49L1231.43 838.12L1288.23 973.59C1288.28 973.713 1288.31 973.846 1288.31 973.98C1288.31 974.115 1288.29 974.248 1288.24 974.372C1288.18 974.496 1288.11 974.609 1288.01 974.703C1287.92 974.797 1287.8 974.871 1287.68 974.92C1287.56 974.968 1287.44 974.995 1287.31 975V975Z" fill="black" style="baseline-shift: 0px; fill: rgb(0, 0, 0); paint-order: normal; text-decoration: none solid rgb(61, 61, 61);"></path>
<path d="M1327.46 937.55H1327.34C1327.21 937.536 1327.08 937.496 1326.96 937.432C1326.84 937.367 1326.74 937.279 1326.66 937.174C1326.57 937.068 1326.51 936.947 1326.48 936.818C1326.44 936.688 1326.43 936.553 1326.45 936.42L1340 816.19L1341 816.27C1341.24 816.27 1342 816.4 1342 816.4L1328.43 936.65C1328.41 936.892 1328.29 937.118 1328.12 937.283C1327.94 937.449 1327.7 937.544 1327.46 937.55Z" fill="black" style="baseline-shift: 0px; fill: rgb(0, 0, 0); paint-order: normal; text-decoration: none solid rgb(61, 61, 61);"></path>
<path d="M946.462 687.78C930.742 686.49 935.002 665 925.342 652.5L881.832 655.57L801.002 676.57C784.852 681.24 776.722 688.79 778.582 701.11L794.582 844.96C794.663 845.418 794.901 845.833 795.255 846.134C795.609 846.435 796.057 846.603 796.522 846.61H822.192C822.192 846.61 827.262 801.9 828.422 788.41C830.592 763.41 827.662 744.54 821.872 724.04L821.042 721.1L939.102 706.66C959.252 703.16 959.252 688.87 959.252 688.87L946.462 687.78Z" fill="#21252B" style="baseline-shift: 0px; fill: rgb(33, 37, 43); paint-order: normal; text-decoration: none solid rgb(61, 61, 61);"></path>
<path d="M911.301 657L938.001 936.46C938.14 937.506 938.657 938.465 939.455 939.156C940.253 939.847 941.276 940.222 942.331 940.21L966.411 939.96L978.411 645.13L928.001 656.2L911.301 657Z" fill="#21252B" style="baseline-shift: 0px; fill: rgb(33, 37, 43); paint-order: normal; text-decoration: none solid rgb(61, 61, 61);"></path>
<path d="M938.322 956.92L917.832 972.64L897.432 977.14C896.151 977.415 895.003 978.123 894.182 979.145C893.36 980.166 892.916 981.439 892.922 982.75V982.75C892.932 984.259 893.536 985.702 894.603 986.769C895.67 987.836 897.113 988.44 898.622 988.45H969.472C969.939 988.45 970.4 988.351 970.826 988.161C971.253 987.971 971.634 987.694 971.946 987.347C972.258 987 972.494 986.591 972.638 986.147C972.782 985.703 972.831 985.234 972.782 984.77L970.482 964.83C970.435 964.539 970.324 964.262 970.158 964.019C969.991 963.776 969.773 963.573 969.519 963.424C969.265 963.275 968.981 963.184 968.688 963.157C968.394 963.13 968.099 963.169 967.822 963.27L963.822 965.01C962.462 965.6 960.977 965.842 959.5 965.715C958.023 965.587 956.601 965.094 955.362 964.28L944.062 956.83C943.238 956.189 942.22 955.848 941.176 955.864C940.132 955.88 939.125 956.253 938.322 956.92V956.92Z" class="change-color-in-svg" fill="#4D61FC" style="fill: rgb(135, 206, 250); baseline-shift: 0px; paint-order: normal; text-decoration: none solid rgb(61, 61, 61);"></path>
<path d="M941.439 959.41C942.332 958.466 942.989 957.325 943.358 956.079C943.726 954.833 943.795 953.518 943.559 952.24L941.899 943.32H966.259L967.999 971L930.879 970.44L941.439 959.41Z" class="change-color-in-svg" fill="#4D61FC" style="fill: rgb(135, 206, 250); baseline-shift: 0px; paint-order: normal; text-decoration: none solid rgb(61, 61, 61);"></path>
<path opacity="0.4" d="M941.439 959.41C942.332 958.466 942.989 957.325 943.358 956.079C943.726 954.833 943.795 953.518 943.559 952.24L941.899 943.32H966.259L967.999 971L930.879 970.44L941.439 959.41Z" fill="white" style="baseline-shift: 0px; fill: rgb(255, 255, 255); opacity: 0.4; paint-order: normal; text-decoration: none solid rgb(61, 61, 61);"></path>
<path d="M938.322 956.92L917.832 972.64L897.432 977.14C896.151 977.415 895.003 978.123 894.182 979.145C893.36 980.166 892.916 981.439 892.922 982.75V982.75C892.932 984.259 893.536 985.702 894.603 986.769C895.67 987.836 897.113 988.44 898.622 988.45H969.472C969.939 988.45 970.4 988.351 970.826 988.161C971.253 987.971 971.634 987.694 971.946 987.347C972.258 987 972.494 986.591 972.638 986.147C972.782 985.703 972.831 985.234 972.782 984.77L970.482 964.83C970.435 964.539 970.324 964.262 970.158 964.019C969.991 963.776 969.773 963.573 969.519 963.424C969.265 963.275 968.981 963.184 968.688 963.157C968.394 963.13 968.099 963.169 967.822 963.27L963.822 965.01C962.462 965.6 960.977 965.842 959.5 965.715C958.023 965.587 956.601 965.094 955.362 964.28L944.062 956.83C943.238 956.189 942.22 955.848 941.176 955.864C940.132 955.88 939.125 956.253 938.322 956.92V956.92Z" class="change-color-in-svg" fill="#4D61FC" style="fill: rgb(135, 206, 250); baseline-shift: 0px; paint-order: normal; text-decoration: none solid rgb(61, 61, 61);"></path>
<path d="M936.572 963.91C936.762 963.91 936.852 963.82 937.032 963.73C937.103 963.679 937.162 963.614 937.207 963.539C937.251 963.463 937.278 963.379 937.288 963.292C937.297 963.206 937.288 963.118 937.261 963.034C937.234 962.951 937.19 962.875 937.132 962.81L934.552 959.68C934.5 959.61 934.434 959.551 934.359 959.508C934.283 959.464 934.199 959.438 934.112 959.429C934.025 959.421 933.937 959.431 933.855 959.458C933.772 959.486 933.696 959.531 933.632 959.59C933.563 959.642 933.505 959.709 933.463 959.784C933.42 959.86 933.394 959.944 933.386 960.03C933.377 960.117 933.387 960.204 933.414 960.286C933.44 960.369 933.484 960.445 933.542 960.51L936.112 963.63C936.155 963.715 936.22 963.786 936.302 963.836C936.383 963.885 936.477 963.911 936.572 963.91Z" fill="white" style="baseline-shift: 0px; fill: rgb(255, 255, 255); paint-order: normal; text-decoration: none solid rgb(61, 61, 61);"></path>
<path d="M934.092 965.66C934.282 965.66 934.372 965.56 934.552 965.47C934.624 965.42 934.684 965.354 934.728 965.278C934.772 965.203 934.799 965.118 934.808 965.031C934.816 964.943 934.806 964.855 934.777 964.772C934.749 964.689 934.702 964.614 934.642 964.55L932.252 961.61C932.201 961.54 932.136 961.481 932.061 961.438C931.986 961.395 931.903 961.368 931.817 961.36C931.731 961.351 931.644 961.361 931.562 961.389C931.48 961.417 931.405 961.461 931.342 961.52C931.271 961.571 931.211 961.636 931.167 961.712C931.123 961.787 931.095 961.871 931.086 961.958C931.076 962.045 931.085 962.132 931.112 962.216C931.139 962.299 931.183 962.375 931.242 962.44L933.632 965.38C933.632 965.56 933.912 965.66 934.092 965.66Z" fill="white" style="baseline-shift: 0px; fill: rgb(255, 255, 255); paint-order: normal; text-decoration: none solid rgb(61, 61, 61);"></path>
<path d="M931.059 967.49C931.225 967.469 931.383 967.407 931.519 967.31C931.59 967.259 931.65 967.194 931.695 967.118C931.739 967.042 931.766 966.958 931.775 966.871C931.783 966.783 931.773 966.695 931.744 966.612C931.716 966.529 931.669 966.453 931.609 966.39L929.409 963.73C929.295 963.617 929.142 963.55 928.982 963.542C928.821 963.534 928.663 963.587 928.539 963.689C928.414 963.791 928.332 963.935 928.308 964.094C928.284 964.253 928.32 964.416 928.409 964.55L930.619 967.22C930.661 967.3 930.725 967.367 930.802 967.415C930.879 967.462 930.968 967.488 931.059 967.49V967.49Z" fill="white" style="baseline-shift: 0px; fill: rgb(255, 255, 255); paint-order: normal; text-decoration: none solid rgb(61, 61, 61);"></path>
<path d="M971.129 970.99L926.469 985.5H935.839L971.589 974.38L971.129 970.99Z" fill="white" style="baseline-shift: 0px; fill: rgb(255, 255, 255); paint-order: normal; text-decoration: none solid rgb(61, 61, 61);"></path>
<path opacity="0.5" d="M972.781 985.51C972.659 986.301 972.259 987.022 971.652 987.542C971.044 988.063 970.271 988.35 969.471 988.35H898.621C897.61 988.364 896.614 988.109 895.735 987.609C894.856 987.11 894.126 986.385 893.621 985.51H972.781Z" fill="black" style="baseline-shift: 0px; fill: rgb(0, 0, 0); opacity: 0.5; paint-order: normal; text-decoration: none solid rgb(61, 61, 61);"></path>
<g opacity="0.15" style="baseline-shift: 0px; opacity: 0.15; paint-order: normal; text-decoration: none solid rgb(61, 61, 61);">
<path d="M786.592 705.32C784.722 693.01 792.862 685.45 809.012 680.79L889.842 659.79L928.142 657.08C927.366 655.466 926.428 653.934 925.342 652.51L881.832 655.58L801.002 676.58C784.852 681.25 776.722 688.8 778.582 701.12L794.582 844.97C794.663 845.428 794.901 845.843 795.255 846.144C795.609 846.445 796.057 846.613 796.522 846.62H802.302L786.592 705.32Z" fill="black" style="baseline-shift: 0px; fill: rgb(0, 0, 0); paint-order: normal; text-decoration: none solid rgb(61, 61, 61);"></path>
</g>
<path opacity="0.15" d="M825.258 737.55L809.548 725.05C809.271 724.86 809.058 724.589 808.939 724.274C808.82 723.96 808.8 723.616 808.881 723.29C808.963 722.963 809.142 722.67 809.396 722.448C809.649 722.226 809.964 722.088 810.298 722.05L821.018 721.1L825.258 737.55Z" fill="black" style="baseline-shift: 0px; fill: rgb(0, 0, 0); opacity: 0.15; paint-order: normal; text-decoration: none solid rgb(61, 61, 61);"></path>
<path d="M792.5 861.89L772.85 878.65L752.71 884.2C751.446 884.544 750.339 885.312 749.574 886.376C748.81 887.439 748.434 888.733 748.51 890.04V890.04C748.595 891.549 749.274 892.963 750.398 893.973C751.522 894.983 753 895.507 754.51 895.43L825.26 891.75C825.726 891.725 826.181 891.603 826.597 891.39C827.012 891.178 827.378 890.88 827.672 890.517C827.965 890.154 828.179 889.734 828.299 889.283C828.419 888.832 828.443 888.361 828.37 887.9L825 868.11C824.938 867.822 824.813 867.551 824.634 867.316C824.455 867.082 824.226 866.89 823.964 866.754C823.703 866.618 823.414 866.542 823.119 866.531C822.824 866.52 822.531 866.574 822.26 866.69L818.41 868.64C817.079 869.293 815.608 869.607 814.127 869.555C812.646 869.503 811.201 869.085 809.92 868.34L798.25 861.5C797.393 860.893 796.353 860.601 795.305 860.672C794.258 860.743 793.267 861.173 792.5 861.89V861.89Z" class="change-color-in-svg" fill="#4D61FC" style="fill: rgb(135, 206, 250); baseline-shift: 0px; paint-order: normal; text-decoration: none solid rgb(61, 61, 61);"></path>
<path d="M797.359 862.71C798.25 861.765 798.906 860.624 799.273 859.378C799.639 858.132 799.707 856.817 799.469 855.54L797.819 846.62H822.169V876L786.789 873.7L797.359 862.71Z" class="change-color-in-svg" fill="#4D61FC" style="fill: rgb(135, 206, 250); baseline-shift: 0px; paint-order: normal; text-decoration: none solid rgb(61, 61, 61);"></path>
<path opacity="0.4" d="M797.359 862.71C798.25 861.765 798.906 860.624 799.273 859.378C799.639 858.132 799.707 856.817 799.469 855.54L797.819 846.62H822.169V876L786.789 873.7L797.359 862.71Z" fill="white" style="baseline-shift: 0px; fill: rgb(255, 255, 255); opacity: 0.4; paint-order: normal; text-decoration: none solid rgb(61, 61, 61);"></path>
<path d="M792.5 861.89L772.85 878.65L752.71 884.2C751.446 884.544 750.339 885.312 749.574 886.376C748.81 887.439 748.434 888.733 748.51 890.04V890.04C748.595 891.549 749.274 892.963 750.398 893.973C751.522 894.983 753 895.507 754.51 895.43L825.26 891.75C825.726 891.725 826.181 891.603 826.597 891.39C827.012 891.178 827.378 890.88 827.672 890.517C827.965 890.154 828.179 889.734 828.299 889.283C828.419 888.832 828.443 888.361 828.37 887.9L825 868.11C824.938 867.822 824.813 867.551 824.634 867.316C824.455 867.082 824.226 866.89 823.964 866.754C823.703 866.618 823.414 866.542 823.119 866.531C822.824 866.52 822.531 866.574 822.26 866.69L818.41 868.64C817.079 869.293 815.608 869.607 814.127 869.555C812.646 869.503 811.201 869.085 809.92 868.34L798.25 861.5C797.393 860.893 796.353 860.601 795.305 860.672C794.258 860.743 793.267 861.173 792.5 861.89V861.89Z" class="change-color-in-svg" fill="#4D61FC" style="fill: rgb(135, 206, 250); baseline-shift: 0px; paint-order: normal; text-decoration: none solid rgb(61, 61, 61);"></path>
<path d="M791.12 869C791.31 869 791.39 868.9 791.57 868.8C791.634 868.741 791.686 868.669 791.721 868.589C791.756 868.509 791.775 868.423 791.775 868.335C791.775 868.248 791.756 868.161 791.721 868.081C791.686 868.001 791.634 867.929 791.57 867.87L788.84 864.87C788.785 864.802 788.717 864.747 788.64 864.707C788.562 864.668 788.478 864.645 788.391 864.64C788.304 864.636 788.217 864.649 788.136 864.68C788.055 864.711 787.981 864.759 787.92 864.82C787.855 864.879 787.804 864.951 787.768 865.031C787.733 865.111 787.715 865.198 787.715 865.285C787.715 865.373 787.733 865.459 787.768 865.539C787.804 865.619 787.855 865.691 787.92 865.75L790.65 868.75C790.697 868.832 790.766 868.899 790.849 868.943C790.932 868.987 791.026 869.007 791.12 869V869Z" fill="white" style="baseline-shift: 0px; fill: rgb(255, 255, 255); paint-order: normal; text-decoration: none solid rgb(61, 61, 61);"></path>
<path d="M788.729 870.83C788.919 870.83 789.009 870.72 789.179 870.62C789.247 870.566 789.302 870.497 789.342 870.42C789.382 870.343 789.404 870.258 789.409 870.171C789.414 870.084 789.4 869.998 789.369 869.917C789.338 869.835 789.291 869.762 789.229 869.7L786.689 866.88C786.573 866.747 786.408 866.667 786.232 866.655C786.056 866.644 785.882 866.703 785.749 866.82C785.617 866.937 785.536 867.101 785.525 867.278C785.514 867.454 785.573 867.627 785.689 867.76L788.229 870.57C788.269 870.76 788.549 870.84 788.729 870.83Z" fill="white" style="baseline-shift: 0px; fill: rgb(255, 255, 255); paint-order: normal; text-decoration: none solid rgb(61, 61, 61);"></path>
<path d="M785.802 872.82C785.992 872.82 786.072 872.71 786.252 872.61C786.316 872.552 786.368 872.481 786.403 872.402C786.438 872.323 786.456 872.237 786.456 872.15C786.456 872.063 786.438 871.978 786.403 871.898C786.368 871.819 786.316 871.748 786.252 871.69L784.002 869.14C783.885 869.007 783.721 868.927 783.544 868.915C783.368 868.904 783.195 868.963 783.062 869.08C782.929 869.197 782.849 869.361 782.837 869.538C782.826 869.714 782.885 869.887 783.002 870.02L785.342 872.57C785.388 872.65 785.455 872.716 785.537 872.76C785.618 872.804 785.71 872.825 785.802 872.82V872.82Z" fill="white" style="baseline-shift: 0px; fill: rgb(255, 255, 255); paint-order: normal; text-decoration: none solid rgb(61, 61, 61);"></path>
<path d="M825.998 874.22L782.148 891.05L791.508 890.56L826.628 877.6L825.998 874.22Z" fill="white" style="baseline-shift: 0px; fill: rgb(255, 255, 255); paint-order: normal; text-decoration: none solid rgb(61, 61, 61);"></path>
<path opacity="0.5" d="M828.401 888.64C828.317 889.432 827.954 890.169 827.377 890.719C826.8 891.268 826.046 891.595 825.251 891.64L754.491 895.33C753.487 895.389 752.486 895.18 751.59 894.725C750.694 894.27 749.935 893.585 749.391 892.74L828.401 888.64Z" fill="black" style="baseline-shift: 0px; fill: rgb(0, 0, 0); opacity: 0.5; paint-order: normal; text-decoration: none solid rgb(61, 61, 61);"></path>
<path d="M902.999 651.17L881.789 655.57V571.35C881.788 563.757 882.63 556.187 884.299 548.78L897.999 505.26L968.789 503.1L904.719 574.85L902.999 651.17Z" class="change-color-in-svg" fill="#4D61FC" style="fill: rgb(135, 206, 250); baseline-shift: 0px; paint-order: normal; text-decoration: none solid rgb(61, 61, 61);"></path>
<path d="M807.511 601.51L870.131 610.51C874.754 611.183 879.471 610.325 883.561 608.066C887.65 605.807 890.889 602.272 892.781 598L930.211 504.53L899.091 505.33C895.078 505.433 891.21 506.849 888.079 509.361C884.949 511.874 882.729 515.344 881.761 519.24L866.421 580.97L806.801 582.58L807.511 601.51Z" class="change-color-in-svg" fill="#4D61FC" style="fill: rgb(135, 206, 250); baseline-shift: 0px; paint-order: normal; text-decoration: none solid rgb(61, 61, 61);"></path>
<path d="M1038 512.92C1038 510.53 1037.53 508.164 1036.62 505.956C1035.7 503.748 1034.36 501.741 1032.68 500.051C1030.99 498.361 1028.98 497.02 1026.77 496.106C1024.57 495.191 1022.2 494.72 1019.81 494.72H1004.53C1002.14 494.72 999.774 495.191 997.566 496.106C995.359 497.02 993.353 498.361 991.664 500.051C989.975 501.741 988.635 503.748 987.722 505.956C986.808 508.164 986.339 510.53 986.34 512.92V534.84H1033.77C1034.89 534.84 1035.97 534.394 1036.76 533.601C1037.55 532.808 1038 531.732 1038 530.61V512.92Z" fill="#21252B" style="baseline-shift: 0px; fill: rgb(33, 37, 43); paint-order: normal; text-decoration: none solid rgb(61, 61, 61);"></path>
<path d="M937.219 494.72H1006.22V654.61H937.219C933.065 654.61 929.082 652.96 926.145 650.023C923.209 647.086 921.559 643.103 921.559 638.95V510.38C921.559 506.227 923.209 502.243 926.145 499.307C929.082 496.37 933.065 494.72 937.219 494.72V494.72Z" fill="#21252B" style="baseline-shift: 0px; fill: rgb(33, 37, 43); paint-order: normal; text-decoration: none solid rgb(61, 61, 61);"></path>
<path d="M1016.16 494.72H1006.33C998.239 494.72 991.68 501.279 991.68 509.37V639.96C991.68 648.051 998.239 654.61 1006.33 654.61H1016.16C1024.25 654.61 1030.81 648.051 1030.81 639.96V509.37C1030.81 501.279 1024.25 494.72 1016.16 494.72Z" fill="#3F4249" style="baseline-shift: 0px; fill: rgb(63, 66, 73); paint-order: normal; text-decoration: none solid rgb(61, 61, 61);"></path>
<path d="M976.539 479.58H970.829C968.841 479.58 966.873 479.972 965.037 480.733C963.201 481.494 961.532 482.609 960.127 484.015C958.722 485.421 957.608 487.09 956.848 488.927C956.088 490.764 955.698 492.732 955.699 494.72H961.999C961.999 492.105 963.038 489.597 964.887 487.748C966.736 485.899 969.244 484.86 971.859 484.86H975.569C978.184 484.86 980.692 485.899 982.541 487.748C984.39 489.597 985.429 492.105 985.429 494.72H991.709C991.709 492.729 991.317 490.758 990.554 488.919C989.791 487.081 988.673 485.41 987.264 484.004C985.855 482.598 984.183 481.483 982.342 480.724C980.502 479.965 978.53 479.576 976.539 479.58V479.58Z" fill="#3F4249" style="baseline-shift: 0px; fill: rgb(63, 66, 73); paint-order: normal; text-decoration: none solid rgb(61, 61, 61);"></path>
<path d="M1014 544.6L1011.71 544.23C1011.43 544.19 1011.14 544.19 1010.86 544.23L1008.57 544.6C1007.93 544.7 1007.34 545.028 1006.92 545.524C1006.5 546.019 1006.27 546.649 1006.27 547.3V555H1016.27V547.3C1016.27 546.654 1016.04 546.028 1015.63 545.534C1015.21 545.04 1014.64 544.709 1014 544.6V544.6Z" class="change-color-in-svg" fill="#4D61FC" style="fill: rgb(135, 206, 250); baseline-shift: 0px; paint-order: normal; text-decoration: none solid rgb(61, 61, 61);"></path>
<path d="M1012.99 542.83H1009.5C1009.02 542.83 1008.63 543.22 1008.63 543.7C1008.63 544.181 1009.02 544.57 1009.5 544.57H1012.99C1013.47 544.57 1013.86 544.181 1013.86 543.7C1013.86 543.22 1013.47 542.83 1012.99 542.83Z" class="change-color-in-svg" fill="#4D61FC" style="fill: rgb(135, 206, 250); baseline-shift: 0px; paint-order: normal; text-decoration: none solid rgb(61, 61, 61);"></path>
<path opacity="0.3" d="M1012.99 542.83H1009.5C1009.02 542.83 1008.63 543.22 1008.63 543.7C1008.63 544.181 1009.02 544.57 1009.5 544.57H1012.99C1013.47 544.57 1013.86 544.181 1013.86 543.7C1013.86 543.22 1013.47 542.83 1012.99 542.83Z" fill="black" style="baseline-shift: 0px; fill: rgb(0, 0, 0); opacity: 0.3; paint-order: normal; text-decoration: none solid rgb(61, 61, 61);"></path>
<path d="M1008.64 553.62H1013.83C1017.01 553.62 1020.07 554.884 1022.32 557.135C1024.57 559.385 1025.83 562.438 1025.83 565.62V625.21C1025.83 626.234 1025.42 627.216 1024.7 627.94C1023.98 628.663 1023 629.07 1021.97 629.07H1000.55C999.528 629.07 998.546 628.663 997.822 627.94C997.098 627.216 996.691 626.234 996.691 625.21V565.59C996.699 562.421 997.96 559.384 1000.2 557.142C1002.44 554.899 1005.47 553.633 1008.64 553.62V553.62Z" class="change-color-in-svg" fill="#4D61FC" style="fill: rgb(135, 206, 250); baseline-shift: 0px; paint-order: normal; text-decoration: none solid rgb(61, 61, 61);"></path>
<path opacity="0.3" d="M1008.64 553.62H1013.83C1017.01 553.62 1020.07 554.884 1022.32 557.135C1024.57 559.385 1025.83 562.438 1025.83 565.62V625.21C1025.83 626.234 1025.42 627.216 1024.7 627.94C1023.98 628.663 1023 629.07 1021.97 629.07H1000.55C999.528 629.07 998.546 628.663 997.822 627.94C997.098 627.216 996.691 626.234 996.691 625.21V565.59C996.699 562.421 997.96 559.384 1000.2 557.142C1002.44 554.899 1005.47 553.633 1008.64 553.62V553.62Z" fill="white" style="baseline-shift: 0px; fill: rgb(255, 255, 255); opacity: 0.3; paint-order: normal; text-decoration: none solid rgb(61, 61, 61);"></path>
<path d="M996.672 591.33V631.94C996.672 633.234 997.186 634.476 998.101 635.391C999.016 636.306 1000.26 636.82 1001.55 636.82H1020.92C1021.56 636.821 1022.2 636.696 1022.79 636.451C1023.38 636.207 1023.92 635.847 1024.38 635.394C1024.83 634.94 1025.19 634.402 1025.43 633.809C1025.68 633.216 1025.8 632.581 1025.8 631.94V591.33H996.672Z" fill="#21252B" style="baseline-shift: 0px; fill: rgb(33, 37, 43); paint-order: normal; text-decoration: none solid rgb(61, 61, 61);"></path>
<path d="M1026.57 591.33H995.909C994.009 591.33 992.469 592.87 992.469 594.77C992.469 596.67 994.009 598.21 995.909 598.21H1026.57C1028.47 598.21 1030.01 596.67 1030.01 594.77C1030.01 592.87 1028.47 591.33 1026.57 591.33Z" fill="#21252B" style="baseline-shift: 0px; fill: rgb(33, 37, 43); paint-order: normal; text-decoration: none solid rgb(61, 61, 61);"></path>
<path d="M923.229 489.57L905.619 495.74C904.748 496.05 903.946 496.529 903.261 497.15C902.576 497.771 902.021 498.522 901.628 499.358C901.235 500.195 901.011 501.102 900.97 502.025C900.929 502.949 901.071 503.872 901.389 504.74L907.719 521.74L887.129 530.41L889.739 580.89L915.239 550.43L924.089 520L923.229 489.57Z" fill="#21252B" style="baseline-shift: 0px; fill: rgb(33, 37, 43); paint-order: normal; text-decoration: none solid rgb(61, 61, 61);"></path>
<path d="M928.08 430.84L916.28 420.12C916.129 419.981 916.013 419.809 915.941 419.616C915.87 419.424 915.844 419.218 915.868 419.014C915.891 418.81 915.963 418.614 916.076 418.443C916.189 418.272 916.342 418.131 916.52 418.03V418.03C916.714 417.921 916.933 417.864 917.155 417.864C917.378 417.864 917.596 417.921 917.79 418.03L933.93 427.16L928.08 430.84Z" class="change-color-in-svg" fill="#4D61FC" style="fill: rgb(135, 206, 250); baseline-shift: 0px; paint-order: normal; text-decoration: none solid rgb(61, 61, 61);"></path>
<path d="M927.279 431.93L925.839 433.46C922.269 437.11 918.069 444.68 916.919 449.69L916.649 450.87L916.399 451.28L908.399 456.07C908.176 456.203 907.984 456.381 907.834 456.594C907.685 456.806 907.582 457.047 907.532 457.302C907.482 457.556 907.486 457.819 907.544 458.072C907.602 458.325 907.713 458.563 907.869 458.77L909.999 461.53L906.129 470.82C905.626 472.031 905.381 473.333 905.408 474.643C905.435 475.954 905.734 477.245 906.286 478.434C906.838 479.623 907.63 480.685 908.614 481.551C909.597 482.418 910.75 483.072 911.999 483.47L918.999 485.73L917.129 520.67L956.999 510.29L951.789 486.55L965.789 461.79L927.279 431.93Z" fill="#956363" style="baseline-shift: 0px; fill: rgb(149, 99, 99); paint-order: normal; text-decoration: none solid rgb(61, 61, 61);"></path>
<path d="M938.561 424.24L937.831 423.66C940.571 425.78 942.981 428.26 946.391 428.55L950.931 428.28C957.801 428.22 965.641 434.67 965.761 440.35C966.071 441.35 965.981 443.85 968.081 444.45C973.731 446.22 977.021 452.03 976.081 456.16L976.011 456.46C975.341 457.3 970.701 467.59 970.701 467.59C965.561 475.14 958.391 480.8 951.841 486.59C951.841 486.59 946.781 482.95 947.151 477.01L949.511 470.94L943.161 466L942.001 468C941.884 468.193 941.729 468.362 941.546 468.495C941.363 468.628 941.155 468.724 940.935 468.777C940.715 468.83 940.486 468.839 940.262 468.804C940.039 468.768 939.824 468.689 939.631 468.57V468.57C939.271 468.348 939.004 468.002 938.879 467.598C938.754 467.193 938.779 466.757 938.951 466.37L941.491 460.74L938.731 458.83C936.071 456.76 934.731 454.29 935.891 451.16L936.701 448.74C936.922 448.105 936.954 447.42 936.794 446.767C936.635 446.114 936.29 445.522 935.801 445.06C935.801 445.06 926.341 441.33 926.801 433.36C926.832 432.875 926.963 432.402 927.185 431.97C927.407 431.539 927.715 431.157 928.091 430.85L938.561 424.24Z" fill="#21252B" style="baseline-shift: 0px; fill: rgb(33, 37, 43); paint-order: normal; text-decoration: none solid rgb(61, 61, 61);"></path>
<path opacity="0.2" d="M919 485.73L924.85 487.17C925.105 487.23 925.334 487.37 925.503 487.57C925.672 487.769 925.773 488.018 925.789 488.279C925.806 488.541 925.739 488.8 925.596 489.02C925.454 489.24 925.246 489.408 925 489.5L918.73 490.86L919 485.73Z" fill="black" style="baseline-shift: 0px; fill: rgb(0, 0, 0); opacity: 0.2; paint-order: normal; text-decoration: none solid rgb(61, 61, 61);"></path>
<path opacity="0.15" d="M947 477C945.741 477.702 944.396 478.24 943 478.6L948.71 483.2C948.017 482.338 947.507 481.343 947.213 480.277C946.919 479.211 946.847 478.095 947 477V477Z" fill="black" style="baseline-shift: 0px; fill: rgb(0, 0, 0); opacity: 0.15; paint-order: normal; text-decoration: none solid rgb(61, 61, 61);"></path>
<path d="M922.106 453.788C922.713 452.793 922.474 451.541 921.573 450.992C920.672 450.443 919.451 450.805 918.844 451.8C918.238 452.795 918.476 454.047 919.377 454.596C920.278 455.145 921.5 454.783 922.106 453.788Z" fill="#21252B" style="baseline-shift: 0px; fill: rgb(33, 37, 43); paint-order: normal; text-decoration: none solid rgb(61, 61, 61);"></path>
<path d="M920.071 451.86C920.231 451.86 920.361 451.73 920.361 451.57C920.361 451.41 920.231 451.28 920.071 451.28C919.911 451.28 919.781 451.41 919.781 451.57C919.781 451.73 919.911 451.86 920.071 451.86Z" fill="white" style="baseline-shift: 0px; fill: rgb(255, 255, 255); paint-order: normal; text-decoration: none solid rgb(61, 61, 61);"></path>
<path opacity="0.2" d="M908.751 467.69C910.792 468.656 913.118 468.834 915.281 468.19C915.44 468.122 915.566 467.996 915.635 467.838C915.704 467.681 915.711 467.502 915.654 467.34C915.597 467.177 915.48 467.043 915.327 466.963C915.175 466.883 914.997 466.864 914.831 466.91C913.017 467.391 911.094 467.246 909.371 466.5C909.292 466.454 909.203 466.426 909.111 466.419C909.019 466.412 908.927 466.426 908.842 466.46C908.756 466.493 908.679 466.546 908.617 466.614C908.554 466.681 908.508 466.762 908.481 466.85C908.44 467.001 908.444 467.161 908.492 467.31C908.54 467.459 908.63 467.591 908.751 467.69V467.69Z" fill="black" style="baseline-shift: 0px; fill: rgb(0, 0, 0); opacity: 0.2; paint-order: normal; text-decoration: none solid rgb(61, 61, 61);"></path>
<path d="M937.938 424.63L975.328 457.3C974.196 460.832 972.235 464.041 969.608 466.66L928.078 430.84L937.938 424.63Z" class="change-color-in-svg" fill="#4D61FC" style="fill: rgb(135, 206, 250); baseline-shift: 0px; paint-order: normal; text-decoration: none solid rgb(61, 61, 61);"></path>
<path d="M928.078 430.84L942.288 421.89C943.639 421.042 945.168 420.518 946.755 420.358C948.343 420.198 949.945 420.408 951.438 420.97L965.928 426.43C968.243 427.296 970.168 428.969 971.348 431.14L977.998 443.21C978.802 444.677 979.236 446.318 979.264 447.99C979.292 449.663 978.912 451.317 978.158 452.81L970.728 467.59L928.078 430.84Z" class="change-color-in-svg" fill="#4D61FC" style="fill: rgb(135, 206, 250); baseline-shift: 0px; paint-order: normal; text-decoration: none solid rgb(61, 61, 61);"></path>
<path d="M921.772 521.77L920.342 503.77C920.217 502.17 920.645 500.576 921.555 499.254C922.465 497.932 923.802 496.964 925.342 496.51L952.292 488.74L955.442 503.08L921.772 521.77Z" class="change-color-in-svg" fill="#4D61FC" style="fill: rgb(135, 206, 250); baseline-shift: 0px; paint-order: normal; text-decoration: none solid rgb(61, 61, 61);"></path>
<path opacity="0.15" d="M921.772 521.77L920.342 503.77C920.217 502.17 920.645 500.576 921.555 499.254C922.465 497.932 923.802 496.964 925.342 496.51L952.292 488.74L955.442 503.08L921.772 521.77Z" fill="#F4F4F4" style="baseline-shift: 0px; fill: rgb(244, 244, 244); opacity: 0.15; paint-order: normal; text-decoration: none solid rgb(61, 61, 61);"></path>
<path d="M921.768 521.77L889.748 580.92L881.828 655.57L978.008 656.7L977.548 505.27L955.458 503.1L921.768 521.77Z" class="change-color-in-svg" fill="#4D61FC" style="fill: rgb(135, 206, 250); baseline-shift: 0px; paint-order: normal; text-decoration: none solid rgb(61, 61, 61);"></path>
<path d="M881.828 655.57C881.828 655.57 904.998 652.5 930.408 673.3C949.118 688.62 961.218 698.01 976.638 695.52L978.998 629L900.058 633.48L881.828 655.57Z" class="change-color-in-svg" fill="#4D61FC" style="fill: rgb(135, 206, 250); baseline-shift: 0px; paint-order: normal; text-decoration: none solid rgb(61, 61, 61);"></path>
<path opacity="0.3" d="M881.828 655.57C881.828 655.57 904.998 652.5 930.408 673.3C949.118 688.62 961.218 698.01 976.638 695.52L977.048 687.63C977.048 687.63 962.828 691.55 936.138 668.99C905.998 643.49 881.828 648.69 881.828 648.69V655.57Z" fill="black" style="baseline-shift: 0px; fill: rgb(0, 0, 0); opacity: 0.3; paint-order: normal; text-decoration: none solid rgb(61, 61, 61);"></path>
<path d="M901.501 703.264L898.785 704.538L1031.46 987.377L1034.17 986.103L901.501 703.264Z" fill="black" style="baseline-shift: 0px; fill: rgb(0, 0, 0); paint-order: normal; text-decoration: none solid rgb(61, 61, 61);"></path>
<g opacity="0.5" style="baseline-shift: 0px; opacity: 0.5; paint-order: normal; text-decoration: none solid rgb(61, 61, 61);">
<path d="M901.501 703.264L898.785 704.538L1031.46 987.377L1034.17 986.103L901.501 703.264Z" fill="white" style="baseline-shift: 0px; fill: rgb(255, 255, 255); paint-order: normal; text-decoration: none solid rgb(61, 61, 61);"></path>
</g>
<path d="M886.437 674.439L884.305 675.518C883.092 676.131 882.606 677.611 883.22 678.823L895.808 703.711C896.421 704.923 897.901 705.409 899.113 704.796L901.246 703.717C902.458 703.104 902.944 701.624 902.331 700.411L889.743 675.524C889.13 674.311 887.65 673.826 886.437 674.439Z" class="change-color-in-svg" fill="#4D61FC" style="fill: rgb(135, 206, 250); baseline-shift: 0px; paint-order: normal; text-decoration: none solid rgb(61, 61, 61);"></path>
<path d="M887.89 670.54L905.79 661.04L914.66 676.81C914.66 676.81 913.2 678.81 912.66 679.46L910.42 682.61C907.26 686.61 904.42 688.52 900.67 691.48L895.77 695.35L891.77 699.79C891.516 700.075 891.202 700.301 890.85 700.452C890.499 700.602 890.119 700.673 889.737 700.66C889.355 700.646 888.981 700.549 888.641 700.374C888.301 700.2 888.003 699.953 887.77 699.65C887.435 699.209 887.246 698.673 887.23 698.12C887.214 697.566 887.371 697.02 887.68 696.56L890.13 692.99L888.64 695.1C888.438 695.39 888.181 695.638 887.884 695.829C887.587 696.02 887.255 696.151 886.907 696.213C886.559 696.276 886.203 696.269 885.857 696.194C885.512 696.119 885.185 695.977 884.895 695.775C884.605 695.574 884.357 695.317 884.166 695.019C883.975 694.722 883.844 694.39 883.782 694.042C883.719 693.695 883.725 693.338 883.801 692.993C883.876 692.647 884.018 692.32 884.22 692.03L885.39 690.41C885.122 690.79 884.77 691.102 884.361 691.322C883.951 691.543 883.497 691.665 883.032 691.679C882.568 691.694 882.106 691.6 881.684 691.406C881.262 691.212 880.891 690.922 880.6 690.56C880.218 690.066 879.997 689.467 879.965 688.843C879.933 688.22 880.091 687.601 880.42 687.07L880.98 686.16C880.779 686.466 880.508 686.72 880.19 686.9C879.871 687.081 879.514 687.183 879.148 687.197C878.783 687.212 878.419 687.139 878.087 686.985C877.755 686.83 877.464 686.599 877.24 686.31C876.964 685.931 876.798 685.483 876.759 685.016C876.72 684.549 876.81 684.08 877.02 683.66L881.51 676.14C883.146 673.779 885.337 671.856 887.89 670.54Z" fill="#956363" style="baseline-shift: 0px; fill: rgb(149, 99, 99); paint-order: normal; text-decoration: none solid rgb(61, 61, 61);"></path>
<path opacity="0.15" d="M877.168 683.81L881.328 676.81L882.208 679.4C882.237 679.867 882.383 680.318 882.633 680.713C882.883 681.108 883.229 681.434 883.638 681.66C884.22 681.982 884.669 682.499 884.908 683.12L885.568 684.71C885.829 685.277 886.25 685.757 886.778 686.09L887.888 686.74C888.378 687.022 888.761 687.458 888.978 687.98L889.408 688.82C889.654 689.334 890.066 689.75 890.578 690L891.858 690.74C892.461 691.086 892.929 691.625 893.188 692.27L893.428 693.02C893.564 693.415 893.788 693.774 894.082 694.07C894.377 694.366 894.734 694.592 895.128 694.73L896.368 695.27L895.868 695.66L891.868 700.1C891.615 700.387 891.301 700.614 890.95 700.766C890.598 700.917 890.217 700.989 889.835 700.975C889.452 700.962 889.078 700.864 888.738 700.688C888.398 700.513 888.101 700.264 887.868 699.96C887.532 699.521 887.343 698.987 887.327 698.435C887.311 697.882 887.469 697.338 887.778 696.88L890.228 693.3L888.728 695.42C888.492 695.771 888.176 696.061 887.806 696.266C887.435 696.471 887.022 696.585 886.599 696.598C886.176 696.612 885.756 696.525 885.373 696.345C884.991 696.164 884.656 695.895 884.398 695.56C884.034 695.108 883.828 694.549 883.814 693.969C883.799 693.388 883.977 692.819 884.318 692.35L885.488 690.72C885.221 691.1 884.869 691.413 884.461 691.635C884.052 691.856 883.597 691.979 883.133 691.995C882.669 692.01 882.207 691.917 881.784 691.724C881.362 691.531 880.99 691.242 880.698 690.88C880.315 690.386 880.093 689.787 880.061 689.163C880.029 688.539 880.188 687.921 880.518 687.39L881.078 686.47C880.879 686.778 880.609 687.034 880.29 687.216C879.971 687.397 879.614 687.5 879.247 687.515C878.88 687.529 878.516 687.456 878.183 687.3C877.851 687.144 877.561 686.911 877.338 686.62C877.024 686.226 876.84 685.745 876.809 685.242C876.779 684.739 876.904 684.239 877.168 683.81Z" fill="black" style="baseline-shift: 0px; fill: rgb(0, 0, 0); opacity: 0.15; paint-order: normal; text-decoration: none solid rgb(61, 61, 61);"></path>
<g opacity="0.15" style="baseline-shift: 0px; opacity: 0.15; paint-order: normal; text-decoration: none solid rgb(61, 61, 61);">
<path d="M887.93 695.21L888.79 695.71L890.63 692.85C890.665 692.794 890.688 692.732 890.698 692.666C890.708 692.601 890.705 692.534 890.688 692.471C890.671 692.407 890.641 692.347 890.6 692.295C890.559 692.244 890.508 692.201 890.45 692.17V692.17C890.393 692.135 890.33 692.112 890.265 692.103C890.199 692.094 890.132 692.098 890.068 692.116C890.004 692.134 889.945 692.165 889.893 692.207C889.842 692.249 889.8 692.301 889.77 692.36L887.93 695.21Z" fill="black" style="baseline-shift: 0px; fill: rgb(0, 0, 0); paint-order: normal; text-decoration: none solid rgb(61, 61, 61);"></path>
</g>
<g opacity="0.15" style="baseline-shift: 0px; opacity: 0.15; paint-order: normal; text-decoration: none solid rgb(61, 61, 61);">
<path d="M884.931 690.68L886.541 688.12V687.99C886.532 687.981 886.522 687.974 886.511 687.97C886.5 687.965 886.488 687.962 886.476 687.962C886.464 687.962 886.452 687.965 886.44 687.97C886.429 687.974 886.419 687.981 886.411 687.99L884.801 690.55L884.931 690.68Z" fill="white" style="baseline-shift: 0px; fill: rgb(255, 255, 255); paint-order: normal; text-decoration: none solid rgb(61, 61, 61);"></path>
<path d="M886.851 687.76C886.916 687.844 886.952 687.948 886.952 688.055C886.952 688.162 886.916 688.266 886.851 688.35L885.001 691.21L884.141 690.71L885.981 687.85C886.056 687.747 886.165 687.673 886.289 687.64C886.413 687.607 886.544 687.618 886.661 687.67C886.732 687.678 886.799 687.71 886.851 687.76V687.76Z" fill="black" style="baseline-shift: 0px; fill: rgb(0, 0, 0); paint-order: normal; text-decoration: none solid rgb(61, 61, 61);"></path>
</g>
<g opacity="0.15" style="baseline-shift: 0px; opacity: 0.15; paint-order: normal; text-decoration: none solid rgb(61, 61, 61);">
<path d="M881.11 687L882.72 684.44V684.31H882.59L880.91 686.92L881.11 687Z" fill="white" style="baseline-shift: 0px; fill: rgb(255, 255, 255); paint-order: normal; text-decoration: none solid rgb(61, 61, 61);"></path>
<path d="M883.091 684.05C883.16 684.133 883.198 684.237 883.198 684.345C883.198 684.453 883.16 684.557 883.091 684.64L881.251 687.49L880.391 687L882.231 684.14C882.306 684.037 882.415 683.963 882.539 683.93C882.663 683.897 882.794 683.908 882.911 683.96C883.041 683.96 883.041 683.96 883.091 684.05V684.05Z" fill="black" style="baseline-shift: 0px; fill: rgb(0, 0, 0); paint-order: normal; text-decoration: none solid rgb(61, 61, 61);"></path>
</g>
<path d="M977.549 505.27C974.698 505.21 971.865 505.728 969.22 506.793C966.575 507.857 964.173 509.447 962.159 511.466C960.145 513.484 958.561 515.89 957.502 518.537C956.444 521.185 955.932 524.02 955.999 526.87L956.399 550.07L955.999 624.62L901.699 663.34L914.699 676.81L975.379 648.22C980.31 645.965 984.202 641.923 986.269 636.91C986.968 635.154 987.419 633.31 987.609 631.43L994.869 558.2L997.999 529.07C998.385 526.134 998.147 523.15 997.302 520.312C996.456 517.474 995.022 514.847 993.092 512.601C991.162 510.355 988.781 508.541 986.102 507.278C983.424 506.015 980.51 505.331 977.549 505.27V505.27Z" class="change-color-in-svg" fill="#4D61FC" style="fill: rgb(135, 206, 250); baseline-shift: 0px; paint-order: normal; text-decoration: none solid rgb(61, 61, 61);"></path>
<path opacity="0.15" d="M981.551 505.75C985.185 507.814 988.123 510.914 989.989 514.654C991.855 518.394 992.566 522.605 992.031 526.75L988.901 555.88L981.641 629.11C981.455 630.991 981.004 632.836 980.301 634.59C978.255 639.641 974.361 643.721 969.411 646L911.301 673.33L914.661 676.81L975.341 648.22C980.272 645.965 984.164 641.923 986.231 636.91C986.93 635.154 987.381 633.31 987.571 631.43L994.831 558.2L998.001 529.07C998.687 523.828 997.375 518.519 994.328 514.199C991.28 509.879 986.719 506.863 981.551 505.75V505.75Z" fill="black" style="baseline-shift: 0px; fill: rgb(0, 0, 0); opacity: 0.15; paint-order: normal; text-decoration: none solid rgb(61, 61, 61);"></path>
<path opacity="0.15" d="M919.191 650.83L949.901 622.53L956.551 536.11C956.381 523.79 955.951 624.62 955.951 624.62L919.191 650.83Z" fill="black" style="baseline-shift: 0px; fill: rgb(0, 0, 0); opacity: 0.15; paint-order: normal; text-decoration: none solid rgb(61, 61, 61);"></path>
<path d="M891.32 576.76V655.79L889.75 655.66V580.92L891.32 576.76Z" fill="#21252B" style="baseline-shift: 0px; fill: rgb(33, 37, 43); paint-order: normal; text-decoration: none solid rgb(61, 61, 61);"></path>
<path d="M964.7 546.53C966.42 532.69 971.37 522.69 982.7 517.34L993.03 512.54C993.03 512.54 990.03 508.3 982.88 507.03L973.52 510.83C967.245 513.652 962.032 518.401 958.641 524.388C955.249 530.375 953.855 537.287 954.66 544.12L955.99 624.62C955.99 624.62 962.21 566.45 964.7 546.53Z" fill="#21252B" style="baseline-shift: 0px; fill: rgb(33, 37, 43); paint-order: normal; text-decoration: none solid rgb(61, 61, 61);"></path>
<path d="M962.402 544.57C964.132 530.73 969.612 520.69 980.902 515.33L990.802 510.33C990.802 510.33 987.232 506.71 980.052 505.44L971.912 509.24C965.639 512.065 960.43 516.815 957.041 522.801C953.651 528.787 952.257 535.698 953.062 542.53L956.002 624.62C956.002 624.62 959.912 564.49 962.402 544.57Z" fill="#3F4249" style="baseline-shift: 0px; fill: rgb(63, 66, 73); paint-order: normal; text-decoration: none solid rgb(61, 61, 61);"></path>
<path opacity="0.15" d="M916.371 709.55C947.371 704.27 952.371 692.7 952.371 692.7C952.371 692.7 946.701 702.92 926.231 711.8L946.001 940.12L941.761 939.88C940.795 939.833 939.878 939.437 939.181 938.766C938.485 938.095 938.055 937.194 937.971 936.23L916.371 709.55Z" fill="black" style="baseline-shift: 0px; fill: rgb(0, 0, 0); opacity: 0.15; paint-order: normal; text-decoration: none solid rgb(61, 61, 61);"></path>
<path d="M940.48 939.68H966.401V942.24C966.401 942.797 966.179 943.331 965.785 943.725C965.392 944.119 964.857 944.34 964.3 944.34H942.581C942.024 944.34 941.489 944.119 941.096 943.725C940.702 943.331 940.48 942.797 940.48 942.24V939.68Z" fill="#3F4249" style="baseline-shift: 0px; fill: rgb(63, 66, 73); paint-order: normal; text-decoration: none solid rgb(61, 61, 61);"></path>
<path d="M796.25 846.62H822.17V849.18C822.17 849.737 821.949 850.271 821.555 850.665C821.161 851.059 820.627 851.28 820.07 851.28H798.35C797.793 851.28 797.259 851.059 796.865 850.665C796.471 850.271 796.25 849.737 796.25 849.18V846.62Z" fill="#3F4249" style="baseline-shift: 0px; fill: rgb(63, 66, 73); paint-order: normal; text-decoration: none solid rgb(61, 61, 61);"></path>
<path d="M744.09 532.71L780.56 525.2L806.76 578.16L806.8 646.66L782.39 642.48V584.02L744.09 532.71Z" fill="white" style="baseline-shift: 0px; fill: rgb(255, 255, 255); paint-order: normal; text-decoration: none solid rgb(61, 61, 61);"></path>
<path opacity="0.2" d="M750.871 541.79L777.991 536.52L800.201 581.41L801.711 640.5L782.391 638.03V584.02L750.871 541.79Z" fill="black" style="baseline-shift: 0px; fill: rgb(0, 0, 0); opacity: 0.2; paint-order: normal; text-decoration: none solid rgb(61, 61, 61);"></path>
<path d="M801.531 631.31L793.05 630.63L793.3 615.82H801.07V614.81H793.32L793.591 599.04L800.651 598.77L800.61 597.76L793.61 598.03L793.87 582.85L800.271 581.91L800.12 580.91L793.891 581.82V581.8V581.66L784.61 565.01L790.901 562.75L790.56 561.8L784.11 564.11L776.021 549.62L783.451 547.82L783.22 546.83L775.51 548.7L769.55 538L768.66 538.5L774.49 548.95L759.23 552.66L759.461 553.64L775 549.87L783.141 564.46L771.17 568.74L771.51 569.7L783.641 565.36L792.87 581.91V581.97L782.32 583.52L782.461 584.53L792.85 583L792.591 598.07L782.37 598.46L782.41 599.47L792.581 599.08L792.31 614.81H782.391V615.82H792.29L792.031 630.55L782.43 629.78L782.35 630.79L792.021 631.56L791.88 639.3L792.901 639.32L793.031 631.64L801.451 632.32L801.531 631.31Z" fill="white" style="baseline-shift: 0px; fill: rgb(255, 255, 255); paint-order: normal; text-decoration: none solid rgb(61, 61, 61);"></path>
<path opacity="0.2" d="M744.09 532.71L761.84 521.03L767.66 527.85L744.09 532.71Z" fill="black" style="baseline-shift: 0px; fill: rgb(0, 0, 0); opacity: 0.2; paint-order: normal; text-decoration: none solid rgb(61, 61, 61);"></path>
<path d="M782.5 602.85C778.06 594.85 773.88 587.17 775 578.13C775.704 576.502 777.013 575.211 778.65 574.53L793.82 567.1C794.284 566.876 794.816 566.839 795.306 566.998C795.796 567.156 796.206 567.497 796.45 567.95V567.95C796.703 568.405 796.767 568.941 796.631 569.443C796.495 569.945 796.168 570.375 795.72 570.64L783.12 578.38L794.52 574.66C794.819 574.571 795.134 574.553 795.441 574.608C795.748 574.663 796.038 574.788 796.287 574.975C796.537 575.161 796.74 575.404 796.879 575.682C797.018 575.961 797.091 576.268 797.09 576.58V576.58C797.073 576.941 796.958 577.291 796.757 577.593C796.556 577.894 796.277 578.135 795.95 578.29L782.62 584.07L792.76 579.69C793.037 579.569 793.339 579.52 793.639 579.547C793.939 579.573 794.228 579.675 794.479 579.842C794.73 580.009 794.935 580.237 795.075 580.504C795.215 580.771 795.285 581.069 795.28 581.37V581.37C795.283 581.678 795.206 581.982 795.058 582.252C794.909 582.521 794.693 582.748 794.43 582.91L782.78 590.1L790.72 585.26C790.934 585.126 791.177 585.045 791.429 585.025C791.68 585.004 791.933 585.045 792.166 585.143C792.398 585.241 792.604 585.394 792.765 585.588C792.926 585.783 793.037 586.013 793.09 586.26V586.26C793.156 586.525 793.154 586.802 793.084 587.066C793.014 587.33 792.879 587.572 792.69 587.77C792.69 587.77 784.27 592.42 782.69 598.4C782.355 599.859 782.29 601.367 782.5 602.85V602.85Z" fill="#956363" style="baseline-shift: 0px; fill: rgb(149, 99, 99); paint-order: normal; text-decoration: none solid rgb(61, 61, 61);"></path>
<path opacity="0.15" d="M782.621 584.07L792.761 579.69" stroke="black" stroke-linecap="round" stroke-linejoin="round" style="baseline-shift: 0px; opacity: 0.15; paint-order: normal; stroke: rgb(0, 0, 0); stroke-linecap: round; stroke-linejoin: round; text-decoration: none solid rgb(61, 61, 61);"></path>
<path opacity="0.15" d="M784.16 589.25L790.78 585.2" stroke="black" stroke-linecap="round" stroke-linejoin="round" style="baseline-shift: 0px; opacity: 0.15; paint-order: normal; stroke: rgb(0, 0, 0); stroke-linecap: round; stroke-linejoin: round; text-decoration: none solid rgb(61, 61, 61);"></path>
<path opacity="0.15" d="M881.809 608.94V562.8L884.309 548.72C884.34 548.533 884.307 548.34 884.214 548.175C884.122 548.009 883.975 547.88 883.799 547.81C883.69 547.766 883.574 547.747 883.457 547.752C883.34 547.757 883.226 547.787 883.122 547.84C883.017 547.893 882.926 547.968 882.853 548.059C882.78 548.151 882.727 548.257 882.699 548.37L879.049 562.65L872.559 610.75C874.204 610.854 875.856 610.709 877.459 610.32C878.965 610.061 880.428 609.596 881.809 608.94V608.94Z" fill="black" style="baseline-shift: 0px; fill: rgb(0, 0, 0); opacity: 0.15; paint-order: normal; text-decoration: none solid rgb(61, 61, 61);"></path>
<path d="M978.21 357.71C978.21 357.71 971.1 356.14 966.27 351.31C961.44 346.48 952.87 332.37 931.15 338.4C909.43 344.43 910.63 348.05 899.77 346.85C888.91 345.65 878.05 325.43 861.16 329.95C844.27 334.47 824.09 357.7 824.09 357.7H978.21V357.71Z" fill="white" style="baseline-shift: 0px; fill: rgb(255, 255, 255); paint-order: normal; text-decoration: none solid rgb(61, 61, 61);"></path>
<path d="M371.66 429.53C374.563 428.816 377.239 427.382 379.44 425.36C382.58 422.22 388.17 413.03 402.31 416.96C416.45 420.89 415.67 423.24 422.74 422.45C429.81 421.66 436.89 408.51 447.89 411.45C458.89 414.39 472 429.52 472 429.52H371.66V429.53Z" fill="white" style="baseline-shift: 0px; fill: rgb(255, 255, 255); paint-order: normal; text-decoration: none solid rgb(61, 61, 61);"></path>
<path d="M1333.88 1039.52H327.399C327.242 1039.52 327.092 1039.46 326.981 1039.35C326.871 1039.24 326.809 1039.09 326.809 1038.93C326.809 1038.77 326.871 1038.62 326.981 1038.51C327.092 1038.4 327.242 1038.34 327.399 1038.34H1334C1334.08 1038.34 1334.16 1038.35 1334.23 1038.38C1334.3 1038.4 1334.37 1038.45 1334.43 1038.5C1334.48 1038.56 1334.52 1038.63 1334.55 1038.7C1334.58 1038.77 1334.59 1038.85 1334.59 1038.93C1334.57 1039.1 1334.48 1039.26 1334.35 1039.37C1334.22 1039.48 1334.05 1039.53 1333.88 1039.52V1039.52Z" fill="#B2B6BB" style="baseline-shift: 0px; fill: rgb(178, 182, 187); paint-order: normal; text-decoration: none solid rgb(61, 61, 61);"></path>
<path d="M391.24 1038.34L359.07 927.08C359.024 926.926 359.009 926.764 359.026 926.604C359.043 926.444 359.092 926.288 359.169 926.147C359.246 926.006 359.35 925.881 359.476 925.78C359.601 925.68 359.746 925.605 359.9 925.56C360.213 925.473 360.548 925.512 360.832 925.669C361.116 925.826 361.327 926.089 361.42 926.4L393.82 1038.34H391.24Z" fill="black" style="baseline-shift: 0px; fill: rgb(0, 0, 0); paint-order: normal; text-decoration: none solid rgb(61, 61, 61);"></path>
<path d="M411.77 1038.34L436.53 902.78C436.588 902.461 436.771 902.177 437.038 901.992C437.305 901.808 437.635 901.737 437.955 901.795C438.274 901.853 438.557 902.036 438.742 902.304C438.927 902.571 438.998 902.9 438.94 903.22L414.29 1038.34H411.77Z" fill="black" style="baseline-shift: 0px; fill: rgb(0, 0, 0); paint-order: normal; text-decoration: none solid rgb(61, 61, 61);"></path>
<path d="M420.19 1038.34H418.59L516.37 948.2C516.484 948.074 516.624 947.973 516.78 947.904C516.935 947.835 517.104 947.8 517.274 947.8C517.444 947.8 517.612 947.836 517.768 947.905C517.924 947.974 518.063 948.075 518.177 948.201C518.292 948.327 518.378 948.476 518.432 948.638C518.485 948.799 518.504 948.97 518.487 949.14C518.47 949.309 518.418 949.473 518.335 949.621C518.251 949.77 518.137 949.899 518 950L422.18 1038.34H420.19Z" fill="black" style="baseline-shift: 0px; fill: rgb(0, 0, 0); paint-order: normal; text-decoration: none solid rgb(61, 61, 61);"></path>
<path d="M492.672 1038.34L562.822 1023.59C563.128 1023.55 563.437 1023.63 563.688 1023.81C563.939 1023.99 564.113 1024.26 564.176 1024.56C564.239 1024.86 564.186 1025.18 564.028 1025.44C563.87 1025.71 563.618 1025.9 563.322 1025.99L504.762 1038.34C504.682 1038.36 492.672 1038.34 492.672 1038.34Z" fill="black" style="baseline-shift: 0px; fill: rgb(0, 0, 0); paint-order: normal; text-decoration: none solid rgb(61, 61, 61);"></path>
<path d="M1156.37 289.09C1156.37 289.09 1143.75 265.28 1124.7 271.45C1119.51 273.016 1114.86 275.998 1111.28 280.061C1107.69 284.124 1105.31 289.107 1104.4 294.45C1104.4 294.45 1088.31 274.45 1069.57 282.84C1052.69 290.36 1055.94 313.45 1055.94 313.45C1055.94 313.45 1059.45 292.92 1075.75 289.45C1092.05 285.98 1106.24 303.68 1106.24 303.68C1106.24 303.68 1109.73 284.17 1126.86 279.23C1143.99 274.29 1156.37 289.09 1156.37 289.09Z" fill="#21252B" style="baseline-shift: 0px; fill: rgb(33, 37, 43); paint-order: normal; text-decoration: none solid rgb(61, 61, 61);"></path>
<path d="M1035.74 280.93C1035.74 280.93 1027.28 262.28 1011.68 267.23C1008.04 268.285 1004.76 270.338 1002.22 273.156C999.678 275.974 997.975 279.446 997.302 283.18C997.302 283.18 985.732 269.54 972.812 275.68C961.172 281.21 963.812 297.26 963.812 297.26C963.812 297.26 966.362 282.61 977.672 279.9C988.982 277.19 998.672 289.57 998.672 289.57C998.672 289.57 1002.5 276.18 1014.36 272.45C1026.22 268.72 1035.74 280.93 1035.74 280.93Z" fill="#21252B" style="baseline-shift: 0px; fill: rgb(33, 37, 43); paint-order: normal; text-decoration: none solid rgb(61, 61, 61);"></path>
<path d="M1221.08 322.55C1221.08 322.55 1212.62 303.91 1197.02 308.85C1193.37 309.911 1190.09 311.972 1187.55 314.799C1185.01 317.627 1183.31 321.108 1182.64 324.85C1182.64 324.85 1171.08 311.2 1158.16 317.34C1146.51 322.88 1149.16 338.93 1149.16 338.93C1149.16 338.93 1151.7 324.28 1163.01 321.57C1174.32 318.86 1184.01 331.24 1184.01 331.24C1184.01 331.24 1187.84 317.84 1199.7 314.11C1211.56 310.38 1221.08 322.55 1221.08 322.55Z" fill="#21252B" style="baseline-shift: 0px; fill: rgb(33, 37, 43); paint-order: normal; text-decoration: none solid rgb(61, 61, 61);"></path>
<path d="M917.508 511.88L904.648 553.39L921.768 521.77L920.998 512.5C920.611 512.67 920.192 512.758 919.768 512.758C919.345 512.758 918.926 512.67 918.538 512.5" fill="#F4F4F4" style="baseline-shift: 0px; fill: rgb(244, 244, 244); paint-order: normal; text-decoration: none solid rgb(61, 61, 61);"></path>
<path d="M916.488 445.33C915.898 445.582 915.414 446.031 915.118 446.6L914.118 448.6C913.606 449.515 913.283 450.523 913.168 451.565C913.053 452.607 913.149 453.662 913.45 454.666C913.751 455.67 914.251 456.604 914.92 457.411C915.589 458.218 916.413 458.882 917.344 459.365C918.275 459.847 919.293 460.137 920.339 460.218C921.384 460.298 922.435 460.168 923.429 459.835C924.423 459.501 925.339 458.971 926.124 458.276C926.909 457.582 927.546 456.736 927.998 455.79L928.998 453.79C929.174 453.456 929.282 453.09 929.316 452.713C929.349 452.337 929.308 451.958 929.193 451.597C929.079 451.237 928.894 450.904 928.649 450.616C928.405 450.328 928.105 450.091 927.768 449.92L919.048 445.4H918.978C918.183 445.08 917.3 445.055 916.488 445.33ZM918.368 446.4H918.438L927.158 450.92C927.568 451.139 927.875 451.51 928.015 451.952C928.156 452.395 928.117 452.875 927.908 453.29L926.908 455.29C926.056 456.801 924.647 457.921 922.983 458.411C921.318 458.901 919.528 458.723 917.992 457.915C916.457 457.107 915.297 455.732 914.758 454.083C914.22 452.433 914.345 450.638 915.108 449.08L916.108 447.08C916.32 446.692 916.676 446.404 917.099 446.276C917.522 446.149 917.978 446.193 918.368 446.4V446.4Z" fill="#21252B" style="baseline-shift: 0px; fill: rgb(33, 37, 43); paint-order: normal; text-decoration: none solid rgb(61, 61, 61);"></path>
<path d="M936.26 477.17C938.558 478.568 941.316 478.998 943.93 478.364C946.543 477.73 948.799 476.085 950.201 473.79L951.49 471.66C952.192 470.507 952.409 469.123 952.092 467.811C951.775 466.499 950.951 465.366 949.8 464.66V464.66C948.646 463.963 947.264 463.75 945.953 464.066C944.643 464.383 943.51 465.203 942.8 466.35L936.23 477.14L936.26 477.17Z" fill="#956363" style="baseline-shift: 0px; fill: rgb(149, 99, 99); paint-order: normal; text-decoration: none solid rgb(61, 61, 61);"></path>
<path opacity="0.2" d="M943.239 470.67C943.417 470.761 943.621 470.786 943.815 470.74C944.009 470.694 944.181 470.581 944.299 470.42L945.389 468.62C945.657 468.196 946.08 467.894 946.568 467.779C947.056 467.663 947.569 467.742 947.999 468C948.241 468.134 948.446 468.324 948.599 468.553C948.753 468.783 948.848 469.046 948.879 469.32C948.92 469.505 949.03 469.668 949.186 469.776C949.343 469.883 949.534 469.927 949.722 469.899C949.909 469.872 950.08 469.774 950.198 469.625C950.316 469.477 950.374 469.289 950.359 469.1C950.28 468.617 950.094 468.157 949.816 467.754C949.538 467.351 949.173 467.015 948.749 466.77C947.987 466.322 947.081 466.189 946.222 466.398C945.364 466.607 944.62 467.142 944.149 467.89L943.049 469.69C942.979 469.759 942.927 469.845 942.898 469.939C942.869 470.034 942.863 470.134 942.882 470.231C942.901 470.328 942.943 470.419 943.006 470.495C943.068 470.572 943.148 470.632 943.239 470.67V470.67Z" fill="black" style="baseline-shift: 0px; fill: rgb(0, 0, 0); opacity: 0.2; paint-order: normal; text-decoration: none solid rgb(61, 61, 61);"></path>
</svg>